<svg xmlns="http://www.w3.org/2000/svg" width="174.07" height="106.112" viewBox="0 0 174.07 106.112"><defs><style>.a{fill:#3f3d56;}.b{fill:#ff6584;}.c{fill:#857c3f;}.d{fill:#ccc;}.e{fill:#f2f2f2;}.f{opacity:0.1;}</style></defs><g transform="translate(0 0)"><path class="a" d="M167.246,503.011l-.3-.067a67.993,67.993,0,0,1,132.6-.181l-.3.068a67.3,67.3,0,0,0-65.979-52.578A68.109,68.109,0,0,0,167.246,503.011Z" transform="translate(-146.211 -396.899)"/><circle class="b" cx="8.315" cy="8.315" r="8.315" transform="translate(55.546 2.31)"/><path class="a" d="M214.2,773.6a3.081,3.081,0,0,0,1.148,1.552,2.653,2.653,0,0,0-.939-3.472A3.081,3.081,0,0,0,214.2,773.6Z" transform="translate(-186.161 -669.377)"/><path class="c" d="M207.282,778.717a3.082,3.082,0,0,1,.8,1.758,2.653,2.653,0,0,1-2.577-2.509A3.082,3.082,0,0,1,207.282,778.717Z" transform="translate(-178.864 -674.7)"/><path class="a" d="M343.2,773.6a3.081,3.081,0,0,0,1.148,1.552,2.653,2.653,0,0,0-.939-3.472A3.081,3.081,0,0,0,343.2,773.6Z" transform="translate(-295.412 -669.377)"/><path class="c" d="M336.282,778.717a1.036,1.036,0,1,1-.98,1.007,1.036,1.036,0,1,1,.98-1.007Z" transform="translate(-288.115 -674.7)"/><path class="a" d="M320.413,81.665l-3.127-2.5L334.8,63.529h44.4V77.287L350.43,96.673Z" transform="translate(-268.711 -53.803)"/><path class="d" d="M570.8,72.3V63.841h-5.9v2.071l-2.2-2.384L548.319,79.163l-5.628,3.752-8.727,63.759,13.161,13.161h30.586V79.788Z" transform="translate(-452.217 -53.803)"/><rect class="e" width="47.527" height="80.672" transform="translate(48.575 25.36)"/><rect class="d" width="8.755" height="19.699" transform="translate(67.023 86.332)"/><path class="a" d="M355.759,583.38v-3.127h-3.752v3.127h3.752Z" transform="translate(-298.116 -491.419)"/><path class="a" d="M355.446,617.016h-3.439v3.127h3.752v-3.127Z" transform="translate(-298.116 -522.554)"/><rect class="a" width="3.752" height="3.127" transform="translate(60.144 88.834)"/><rect class="a" width="3.752" height="3.127" transform="translate(60.144 94.462)"/><path class="a" d="M523.235,583.38v-3.127h-3.752v3.127h3.752Z" transform="translate(-439.952 -491.419)"/><path class="a" d="M522.922,617.016h-3.439v3.127h3.752v-3.127Z" transform="translate(-439.952 -522.554)"/><rect class="a" width="3.752" height="3.127" transform="translate(85.784 88.834)"/><rect class="a" width="3.752" height="3.127" transform="translate(85.784 94.462)"/><path class="a" d="M694.8,174.9v-3.127h-3.752V174.9H694.8Z" transform="translate(-585.247 -145.478)"/><path class="a" d="M694.483,208.539h-3.44v3.127H694.8v-3.127Z" transform="translate(-585.247 -176.613)"/><rect class="a" width="3.752" height="3.127" transform="translate(112.049 26.298)"/><rect class="a" width="3.752" height="3.127" transform="translate(112.049 31.926)"/><path class="a" d="M694.8,289.276v-3.127h-3.752v3.127H694.8Z" transform="translate(-585.247 -242.341)"/><path class="a" d="M694.483,322.912h-3.44v3.127H694.8v-3.127Z" transform="translate(-585.247 -273.476)"/><rect class="a" width="3.752" height="3.127" transform="translate(112.049 43.808)"/><rect class="a" width="3.752" height="3.127" transform="translate(112.049 49.436)"/><path class="a" d="M694.8,403.65v-3.127h-3.752v3.127H694.8Z" transform="translate(-585.247 -339.205)"/><path class="a" d="M694.483,437.286h-3.44v3.127H694.8v-3.127Z" transform="translate(-585.247 -370.34)"/><rect class="a" width="3.752" height="3.127" transform="translate(112.049 61.318)"/><rect class="a" width="3.752" height="3.127" transform="translate(112.049 66.946)"/><path class="a" d="M694.8,518.024V514.9h-3.752v3.127H694.8Z" transform="translate(-585.247 -436.069)"/><path class="a" d="M694.483,551.66h-3.44v3.127H694.8V551.66Z" transform="translate(-585.247 -467.204)"/><rect class="a" width="3.752" height="3.127" transform="translate(112.049 78.828)"/><rect class="a" width="3.752" height="3.127" transform="translate(112.049 84.456)"/><rect class="a" width="36.271" height="7.504" transform="translate(53.891 29.424)"/><rect class="a" width="36.271" height="7.504" transform="translate(53.891 44.433)"/><rect class="a" width="36.271" height="7.504" transform="translate(53.891 59.442)"/><rect class="a" width="36.271" height="7.504" transform="translate(53.891 74.451)"/><rect class="a" width="174.07" height="0.306" transform="translate(0 105.716)"/><rect class="a" width="0.899" height="35.526" transform="translate(29.15 70.365)"/><path class="c" d="M184.785,468.426c.057,12.423-8.683,22.534-8.683,22.534s-8.833-10.03-8.89-22.453,8.683-22.534,8.683-22.534S184.728,456,184.785,468.426Z" transform="translate(-146.435 -393.534)"/><path class="f" d="M184.785,468.426c.057,12.423-8.683,22.534-8.683,22.534s-8.833-10.03-8.89-22.453,8.683-22.534,8.683-22.534S184.728,456,184.785,468.426Z" transform="translate(-146.435 -393.534)"/><rect class="a" width="0.899" height="35.526" transform="translate(17.458 70.365)"/><path class="c" d="M108.413,468.426c.057,12.423-8.683,22.534-8.683,22.534s-8.833-10.03-8.89-22.453,8.683-22.534,8.683-22.534S108.356,456,108.413,468.426Z" transform="translate(-81.755 -393.534)"/><path class="e" d="M905.962,233.77c-7.085.033-12.852.137-12.852.137s6.855-9.08,12.826-5.716a81.535,81.535,0,0,0,12.83,5.6S913.047,233.737,905.962,233.77Z" transform="translate(-761.202 -208.46)"/><path class="e" d="M134.962,347.77c-7.085.033-12.851.137-12.851.137s6.855-9.08,12.826-5.716a81.535,81.535,0,0,0,12.83,5.6S142.047,347.737,134.962,347.77Z" transform="translate(-108.239 -305.007)"/><path class="e" d="M302.962,109.77c-7.085.033-12.851.137-12.851.137s6.855-9.08,12.826-5.716a81.535,81.535,0,0,0,12.83,5.6S310.047,109.737,302.962,109.77Z" transform="translate(-250.519 -103.444)"/><rect class="a" width="0.899" height="35.526" transform="translate(158.458 70.365)"/><path class="c" d="M1029.418,468.426c.057,12.423-8.683,22.534-8.683,22.534s-8.833-10.03-8.89-22.453,8.683-22.534,8.683-22.534S1029.359,456,1029.418,468.426Z" transform="translate(-861.758 -393.534)"/><path class="a" d="M798.695,535.509h9.077v-2.191h5.008v2.191h9.39v9.7h-9.39v12.207h-5.008V545.212h-9.077L794,539.891Z" transform="translate(-672.442 -451.67)"/></g></svg>