<svg xmlns="http://www.w3.org/2000/svg" width="192.241" height="129.415" viewBox="0 0 192.241 129.415"><defs><style>.a{fill:#9d5f2f;}.b{fill:#f2f2f2;}.c{opacity:0.1;}.d{fill:#2f2e41;}.e{fill:#3f3d56;}.f{fill:#ffb8b8;}.g{fill:#a0616a;}</style></defs><circle class="a" cx="13.534" cy="13.534" r="13.534" transform="translate(63.788 17.617)"/><path class="b" d="M60.719,315.966,44.821,300.3l-3.943-3.885L29.111,284.822,14.524,300.394,0,315.9" transform="translate(0 -228.607)"/><path class="b" d="M267.2,153.353H159.71l13.3-14.416,24.571-28.82,1.656-1.942L221.462,82.1l15.379,24.358.4.638,19.566,30.984Z" transform="translate(-128.188 -65.9)"/><path class="b" d="M661.922,252.774l-26.55-31.327L622.357,206.09l-12.58,15.773L598.3,236.254,585.18,252.708" transform="translate(-469.682 -165.415)"/><path class="c" d="M99.943,296.416l-7.005,4.7-8.271-3.258-11.078,2.539,14.587-15.572Z" transform="translate(-59.065 -228.607)"/><path class="c" d="M397.575,106.462l-2.347,4.123-5.262-5.513-5.765,5.513-3.259-6.265-5.264,6.265-1.5-4.009-3.507,4.009-6.267-4.009-4.431,1.6L382.2,82.1Z" transform="translate(-288.922 -65.9)"/><path class="c" d="M735.4,221.447l-6.5,7.953-5.263-6.266-8.02,6.516-5.812-7.787,12.58-15.773Z" transform="translate(-569.708 -165.415)"/><path class="d" d="M918.59,386.523l-.351-.181c4.556-8.808,2.12-20.245-.726-28.29a86.7,86.7,0,0,0-7.358-15.528l.334-.211a87.152,87.152,0,0,1,7.4,15.607C920.757,366.038,923.21,377.59,918.59,386.523Z" transform="translate(-752.819 -298.861)"/><rect class="d" width="14.246" height="0.395" transform="translate(166.589 57.537) rotate(-79.645)"/><rect class="d" width="0.395" height="19.412" transform="matrix(0.732, -0.681, 0.681, 0.732, 151.832, 55.731)"/><rect class="d" width="11.449" height="0.395" transform="matrix(0.586, -0.81, 0.81, 0.586, 169.188, 80.352)"/><circle class="a" cx="1.974" cy="1.974" r="1.974" transform="translate(168.359 35.86)"/><circle class="e" cx="1.974" cy="1.974" r="1.974" transform="translate(146.845 51.058)"/><circle class="e" cx="1.974" cy="1.974" r="1.974" transform="translate(155.529 53.032)"/><circle class="a" cx="1.974" cy="1.974" r="1.974" transform="translate(151.582 60.729)"/><circle class="e" cx="1.974" cy="1.974" r="1.974" transform="translate(176.254 65.663)"/><circle class="e" cx="1.974" cy="1.974" r="1.974" transform="translate(169.74 67.835)"/><circle class="e" cx="1.974" cy="1.974" r="1.974" transform="translate(174.28 74.15)"/><circle class="e" cx="1.974" cy="1.974" r="1.974" transform="translate(153.556 38.229)"/><path class="d" d="M669.59,384.523l-.351-.181c4.556-8.808,2.12-20.246-.726-28.29a86.706,86.706,0,0,0-7.358-15.528l.334-.211a87.14,87.14,0,0,1,7.4,15.607C671.757,364.038,674.21,375.59,669.59,384.523Z" transform="translate(-552.964 -297.255)"/><rect class="d" width="14.246" height="0.395" transform="translate(117.443 57.142) rotate(-79.645)"/><rect class="d" width="0.395" height="19.412" transform="matrix(0.732, -0.681, 0.681, 0.732, 102.687, 55.337)"/><rect class="d" width="11.449" height="0.395" transform="matrix(0.586, -0.81, 0.81, 0.586, 120.042, 79.958)"/><circle class="e" cx="1.974" cy="1.974" r="1.974" transform="translate(119.213 35.465)"/><circle class="e" cx="1.974" cy="1.974" r="1.974" transform="translate(97.699 50.663)"/><circle class="e" cx="1.974" cy="1.974" r="1.974" transform="translate(106.384 52.637)"/><circle class="e" cx="1.974" cy="1.974" r="1.974" transform="translate(102.436 60.334)"/><circle class="a" cx="1.974" cy="1.974" r="1.974" transform="translate(127.108 65.269)"/><circle class="e" cx="1.974" cy="1.974" r="1.974" transform="translate(120.595 67.44)"/><circle class="e" cx="1.974" cy="1.974" r="1.974" transform="translate(125.134 73.756)"/><circle class="e" cx="1.974" cy="1.974" r="1.974" transform="translate(104.41 37.834)"/><path class="d" d="M275.639,384.523l.351-.181c-4.556-8.808-2.12-20.246.726-28.29a86.707,86.707,0,0,1,7.358-15.528l-.334-.211a87.146,87.146,0,0,0-7.4,15.607C273.472,364.038,271.019,375.59,275.639,384.523Z" transform="translate(-241.472 -297.255)"/><rect class="d" width="0.395" height="14.246" transform="translate(30.401 43.198) rotate(-10.355)"/><rect class="d" width="19.412" height="0.395" transform="matrix(0.681, -0.732, 0.732, 0.681, 34.593, 69.279)"/><rect class="d" width="0.395" height="11.449" transform="matrix(0.81, -0.586, 0.586, 0.81, 23.724, 70.909)"/><circle class="e" cx="1.974" cy="1.974" r="1.974" transform="translate(27.632 35.465)"/><circle class="e" cx="1.974" cy="1.974" r="1.974" transform="translate(49.146 50.663)"/><circle class="e" cx="1.974" cy="1.974" r="1.974" transform="translate(40.461 52.637)"/><circle class="e" cx="1.974" cy="1.974" r="1.974" transform="translate(44.409 60.334)"/><circle class="e" cx="1.974" cy="1.974" r="1.974" transform="translate(19.737 65.269)"/><circle class="e" cx="1.974" cy="1.974" r="1.974" transform="translate(26.251 67.44)"/><circle class="a" cx="1.974" cy="1.974" r="1.974" transform="translate(21.711 73.756)"/><circle class="e" cx="1.974" cy="1.974" r="1.974" transform="translate(42.435 37.834)"/><rect class="d" width="192.241" height="0.395" transform="translate(0 87.177)"/><circle class="d" cx="2.375" cy="2.375" r="2.375" transform="translate(82.497 80.539)"/><path class="f" d="M534.387,550.278s.047.855-.523.95l.808,1.948,1,1.615h.855l.523-.475-.095-.617-.285-1.093-.333-.333a4.859,4.859,0,0,1,.475-2C537.237,549.66,534.387,550.278,534.387,550.278Z" transform="translate(-450.798 -465.559)"/><path class="c" d="M534.387,550.278s.047.855-.523.95l.808,1.948,1,1.615h.855l.523-.475-.095-.617-.285-1.093-.333-.333a4.859,4.859,0,0,1,.475-2C537.237,549.66,534.387,550.278,534.387,550.278Z" transform="translate(-450.798 -465.559)"/><circle class="d" cx="1.14" cy="1.14" r="1.14" transform="translate(84.397 79.494)"/><path class="d" d="M539.685,523.459a1.14,1.14,0,0,1,1.14-1.14h.045a1.14,1.14,0,1,0-.375,2.23A1.14,1.14,0,0,1,539.685,523.459Z" transform="translate(-455.24 -443.3)"/><path class="f" d="M529.491,556.13l-.475-.047a.78.78,0,0,0-.76.19c-.333.333.047,4.085.047,4.085l1.188-.808.19-1.9Z" transform="translate(-446.186 -470.413)"/><path class="f" d="M508.165,631.057l-.665,3.753a5.952,5.952,0,0,1-.95,2.043c-.523.475-1.33,4.418-1.52,5.273a5.069,5.069,0,0,1-.475,1.663c-.237.333,0,1.52,0,1.52h.523l.76-.142a15.716,15.716,0,0,1,.285-2.138c.143-.333,2.47-5.32,2.47-5.32a15.687,15.687,0,0,0,1.853-3.61,8.216,8.216,0,0,1,1.045-2.423Z" transform="translate(-427.188 -530.615)"/><path class="f" d="M547.583,626.786l.618,4.323a8.145,8.145,0,0,0,.19,1.853c.19.522.333,3.61.523,4.323a9.029,9.029,0,0,1,.475,2.47,6.781,6.781,0,0,0-.428.95l.475,1.045,1.283-.9-.19-7.79s.522-6.6.19-6.793A2.674,2.674,0,0,0,547.583,626.786Z" transform="translate(-461.808 -526.533)"/><path class="d" d="M523.382,605.01l-.95,2.613s-.713,2.755-.333,2.9,4.7.76,4.8.237a5.354,5.354,0,0,0,.095-.618s3.705.143,3.753-.713a30.714,30.714,0,0,0-.19-3.468.926.926,0,0,0-.855-.713C529.177,605.248,524.664,604.06,523.382,605.01Z" transform="translate(-441.265 -509.413)"/><path class="d" d="M501.946,695.532a.313.313,0,0,1,.428-.095,2.112,2.112,0,0,0,.855.095l-.143,1.283s.57,2.28-.475,2.28-1.615-.76-1.52-1.045.332-2.518.332-2.518.456-1.121.475-1.187S501.946,695.532,501.946,695.532Z" transform="translate(-424.484 -581.409)"/><path class="d" d="M551.687,696.79s-.1.523.333.475,1.14-.475,1.188-.427a2.34,2.34,0,0,1,.237.76,2.165,2.165,0,0,0,.57,1.378c.428.333,1.093,1.378.333,1.425s-2.138,0-2.185-.475-.048-1-.048-1a1.283,1.283,0,0,1-.57-.047c-.143-.1-1.093-.665-.808-1.425a2.907,2.907,0,0,1,1.089-1.25Z" transform="translate(-464.297 -582.904)"/><circle class="f" cx="1.853" cy="1.853" r="1.853" transform="translate(82.83 81.727)"/><path class="f" d="M547.1,563.187s.855,0,1.045.475a2.85,2.85,0,0,1-.19,1.473l-.433-1.059Z" transform="translate(-461.422 -476.14)"/><path class="e" d="M524.311,555.967h.57s1.473,2.185,1.71,2.375,1.093.237,1.093.1-.428-1.378-.428-1.378l.38.285.617,1.52s1.663,4.18,1.52,4.608a.424.424,0,0,0,.238.57c.047.047.57,1.14.333,1.568s.237.95.237.95.237,1.045-.57,1.188-1.235-.617-2.185-.237-2.233.428-2.518-.143a10.658,10.658,0,0,1-.523-1.33,2.358,2.358,0,0,0-.285,1.615c.237.713-.095-.047-.333-.047s-.665-.048-.665-.333-.95-5.083-.95-5.083l1.33-3.04s1.235-.57,1.093-1.235S525.023,556.3,524.311,555.967Z" transform="translate(-441.719 -470.345)"/><path class="f" d="M519.145,556.627a.831.831,0,0,0-.883-.147,2.043,2.043,0,0,0-1.173,1.365c-.428,1.378-1.33,5.035-1.14,5.938s1.758,4.94,1.758,4.94a10.578,10.578,0,0,0,.19,1.093,18.636,18.636,0,0,0,.76-1.71l-1.235-4.7,1.662-5.083S519.761,557.2,519.145,556.627Z" transform="translate(-436.398 -470.703)"/><ellipse class="d" cx="1.829" cy="1.188" rx="1.829" ry="1.188" transform="translate(83.02 80.824)"/><path class="d" d="M283.847,563.41s-3.182,1.713-3.3,3.182-1.958,5.14-1.958,5.14-7.22-2.08-7.343-2.2a11.581,11.581,0,0,0-.612,2.2l2.57.367,4.773,1.713s1.1,1.591,2.937-.612,6.486-6.975,6.486-6.975Z" transform="translate(-239.518 -476.319)"/><path class="d" d="M334.493,580.355s4.038,3.916,3.916,4.773-1.958,7.832-1.958,7.832l1.469.734.979-.612,1.958-8.444s.737-1.034-.672-2.23-2.388-5.357-2.388-5.357Z" transform="translate(-290.776 -487.267)"/><circle class="g" cx="2.08" cy="2.08" r="2.08" transform="translate(53.078 81.156)"/><path class="g" d="M375.677,539.183s-2.08-.979-2.325-.734.489,3.182.489,3.182a18.41,18.41,0,0,1,2.2-1.1C376.288,540.529,375.677,539.183,375.677,539.183Z" transform="translate(-321.925 -456.253)"/><path class="a" d="M342.707,539.2s-.612-2.448-.857-2.448a6.681,6.681,0,0,0-4.038,2.08,18.027,18.027,0,0,1-3.549,3.059c-.489.367-.857.734,0,1.1a5.777,5.777,0,0,1,2.2,1.958c.367.612,2.815-.122,2.815-.122s1.1-2.08,1.469-2.08S343.074,539.931,342.707,539.2Z" transform="translate(-290.18 -454.921)"/><path class="g" d="M353.567,562.79s-1.713,2.325-1.713,4.038a18.384,18.384,0,0,0,.979,4.528s.857,4.161,1.591,2.692-.49-3.427-.49-3.427l-.49-4.406.979-2.325Z" transform="translate(-304.711 -475.822)"/><path class="d" d="M263.656,592.232s-1.364-1-1.487-.631-1.958,4.528-1.346,4.773,2.448-2.2,2.57-2.2S263.307,592.129,263.656,592.232Z" transform="translate(-231.547 -498.882)"/><path class="d" d="M345.9,654.554a12.877,12.877,0,0,0,2.2.979c.367,0,1.1.49.245.734s-4.65.612-4.773.245a4.755,4.755,0,0,1,0-1.346S345.9,654.921,345.9,654.554Z" transform="translate(-298.02 -549.474)"/><path class="d" d="M386.4,532.335a1.031,1.031,0,0,0,.059-.472,1.5,1.5,0,0,0-.275-.994c-.122-.132-.295-.221-.381-.38a2.384,2.384,0,0,1-.11-.341.952.952,0,0,0-.676-.55,2.811,2.811,0,0,0-.9-.033,4.186,4.186,0,0,0-1.267.223,1.415,1.415,0,0,0-.874.887,2.093,2.093,0,0,0-.051.487l-.018.681a.44.44,0,0,0,.5.054c.166-.074.306-.2.475-.265a.417.417,0,0,1,.5.09,1.491,1.491,0,0,1,.086.187c.336.669,1.238-.043,1.707-.033C385.6,531.886,386.1,532.994,386.4,532.335Z" transform="translate(-328.832 -449.137)"/><path class="d" d="M324.674,659.767c3.05,0,3.541-1.136,3.561-1.187l-.227-.092c-.005.011-.527,1.143-3.8,1.026-3.175-.114-8.089-.016-8.745,0-.184-.312-1.009-1.576-2.175-1.342l.048.24c1.12-.225,1.94,1.269,1.949,1.284l.036.066.075,0c.054,0,5.42-.121,8.8,0Q324.448,659.767,324.674,659.767Z" transform="translate(-273.759 -552.353)"/><rect class="d" width="0.979" height="0.979" rx="0.49" transform="translate(51.426 108.629) rotate(180)"/><rect class="d" width="0.979" height="0.979" rx="0.49" transform="translate(42.982 108.629) rotate(180)"/><path class="a" d="M359.857,547.909s-.582,2.946-1.209,3.492-.774,1.075-1.19,1.239-1.884-1.549-1.884-1.672S359.857,547.909,359.857,547.909Z" transform="translate(-307.697 -463.878)"/><rect class="d" width="30.79" height="0.395" transform="translate(33.751 109.085)"/><rect class="d" width="30.79" height="0.395" transform="translate(70.462 117.375)"/><rect class="d" width="12.632" height="0.395" transform="translate(113.687 129.02)"/><rect class="d" width="12.632" height="0.395" transform="translate(34.935 125.665)"/><rect class="d" width="54.31" height="0.395" transform="translate(105.084 97.835)"/><path class="b" d="M274.455,191.8a8.969,8.969,0,0,0-14.754,3.184l16.472-.763A8.951,8.951,0,0,0,274.455,191.8Z" transform="translate(-230.747 -175.935)"/><path class="b" d="M454.455,124.8a8.969,8.969,0,0,0-14.754,3.184l16.472-.763A8.952,8.952,0,0,0,454.455,124.8Z" transform="translate(-375.22 -122.159)"/><path class="b" d="M771.455,291.8a8.969,8.969,0,0,0-14.754,3.184l16.473-.763A8.952,8.952,0,0,0,771.455,291.8Z" transform="translate(-629.653 -256.198)"/><rect class="d" width="29.803" height="0.395" transform="translate(134.016 122.901)"/><path class="a" d="M805.281,699.451a1.578,1.578,0,0,1-1.46,1.574h0c-.039,0-.078,0-.118,0a1.579,1.579,0,0,1-1.579-1.579.162.162,0,0,1,0-.024,1.577,1.577,0,0,1,1.4-1.545,1.674,1.674,0,0,1,.175-.01,1.577,1.577,0,0,1,1.555,1.306h0A1.552,1.552,0,0,1,805.281,699.451Z" transform="translate(-666.109 -584.242)"/><path class="b" d="M811.208,704.39a1.578,1.578,0,0,1-1.46,1.574h0a1.215,1.215,0,0,1,1.437-1.847h0A1.558,1.558,0,0,1,811.208,704.39Z" transform="translate(-672.036 -589.181)"/><path class="b" d="M803.586,698.276a1.215,1.215,0,0,1-1.456,1.19,1.577,1.577,0,0,1,1.4-1.545A1.176,1.176,0,0,1,803.586,698.276Z" transform="translate(-666.114 -584.282)"/><path class="d" d="M873.552,687.141c0,.981-1.466.846-1.776,1.776-1.086,3.255-1.786-.484-1.776-1.776a1.776,1.776,0,0,1,3.553,0Z" transform="translate(-720.589 -574.204)"/><path class="e" d="M868.32,719.331s-.021,2.237-.312,2.382-1.945.458-1.654.968a1.172,1.172,0,0,0,1.53.437,11.929,11.929,0,0,0,1.748-2.039Z" transform="translate(-717.635 -601.466)"/><path class="e" d="M907.825,725.445s0,.021,0,.06a1.617,1.617,0,0,0,2.235,1.379c.213-.083.4-.1.364.133-.073.51-.052,1.2.312,1.2s.874-.874.583-1.821a8.112,8.112,0,0,0-.947-1.894Z" transform="translate(-750.948 -605.613)"/><path class="c" d="M868.32,719.331s-.021,2.237-.312,2.382-1.945.458-1.654.968a1.172,1.172,0,0,0,1.53.437,11.929,11.929,0,0,0,1.748-2.039Z" transform="translate(-717.635 -601.466)"/><path class="c" d="M907.825,725.445s0,.021,0,.06a1.617,1.617,0,0,0,2.235,1.379c.213-.083.4-.1.364.133-.073.51-.052,1.2.312,1.2s.874-.874.583-1.821a8.112,8.112,0,0,0-.947-1.894Z" transform="translate(-750.948 -605.613)"/><path class="e" d="M860.944,690.407a2.46,2.46,0,0,1,.674-.88,2.2,2.2,0,0,1,2.01-.428,2.37,2.37,0,0,1,1.894,1.675v.5a1.2,1.2,0,0,0,.74,1.122c.371.145,6.477-.059,6.841-.424a4.048,4.048,0,0,0,.649-.98v.014a3.716,3.716,0,0,1-.5,1.9,1.219,1.219,0,0,0-.225.707c.073.51.291,1.894-.146,2.4s-.219.874.291.947,1.384-.073,1.311.8.073,1.238-.291,1.238-.524-.112-.889-.914c0,0-.277-.179-1.3.112-.663.189-1.534.369-1.788-.146-.563-1.138-4.187-.914-5.012.226a3.8,3.8,0,0,1-.8.856,2,2,0,0,1-.471.275,1.178,1.178,0,0,1-1.329-.191c-.728-.8,1.219-.935,1.219-.935a2.347,2.347,0,0,0,.165-1.25,2.549,2.549,0,0,1-1.821-2.622s-2.331,0-2.695-1.165l-.364-1.165.7-.42a2.883,2.883,0,0,0,1.129-1.253Z" transform="translate(-711.85 -577.134)"/><ellipse class="d" cx="0.34" cy="0.437" rx="0.34" ry="0.437" transform="translate(146.955 114.572)"/><path class="d" d="M879.947,689.974c0,1.09-1.629.94-1.974,1.974-1.207,3.617-1.985-.537-1.974-1.974a1.974,1.974,0,0,1,3.947,0Z" transform="translate(-725.404 -576.319)"/></svg>