<svg xmlns="http://www.w3.org/2000/svg" width="184.857" height="134.695" viewBox="0 0 184.857 134.695"><defs><style>.a{fill:#44844d;}.a,.k{opacity:0.5;}.b{opacity:0.45;}.c{fill:#6c63ff;}.d{fill:#4a8a50;}.e{fill:#408555;}.f{opacity:0.1;}.g{fill:#64c896;}.h{fill:#63ffa1;}.i{fill:#22754c;}.j{fill:#fff;}.k{fill:#dee3f3;}.l{opacity:0.3;}</style></defs><g transform="translate(0)"><ellipse class="a" cx="46.011" cy="7.728" rx="46.011" ry="7.728" transform="translate(46.057 119.239)"/><g class="b" transform="translate(0 21.286)"><path class="c" d="M536.5,332.707a1.966,1.966,0,0,0,.018.258A1.966,1.966,0,0,1,536.5,332.707Z" transform="translate(-455.486 -307.449)"/><path class="c" d="M665.418,301.82c0,.023.008.046.011.069C665.426,301.866,665.422,301.843,665.418,301.82Z" transform="translate(-561.232 -282.113)"/><path class="c" d="M665.15,300.546q.01.036.019.072C665.163,300.594,665.157,300.57,665.15,300.546Z" transform="translate(-561.012 -281.068)"/><path class="c" d="M665.146,335.124c-.009.04-.019.079-.03.117C665.127,335.2,665.137,335.164,665.146,335.124Z" transform="translate(-560.984 -309.432)"/><path class="c" d="M665.377,334.069c-.005.042-.011.084-.019.125C665.365,334.153,665.372,334.111,665.377,334.069Z" transform="translate(-561.183 -308.566)"/><path class="c" d="M540.521,341.157a2,2,0,0,1-.426-.3A1.994,1.994,0,0,0,540.521,341.157Z" transform="translate(-458.434 -314.134)"/><path class="c" d="M539.234,339.957a2,2,0,0,1-.17-.18A2,2,0,0,0,539.234,339.957Z" transform="translate(-457.588 -313.249)"/><path class="c" d="M729.862,551.119a1.99,1.99,0,0,0-.084-.231A1.99,1.99,0,0,1,729.862,551.119Z" transform="translate(-614.024 -486.416)"/><path class="c" d="M724.741,545.507a2.008,2.008,0,0,1,.227.138A2.008,2.008,0,0,0,724.741,545.507Z" transform="translate(-609.893 -482.003)"/><path class="c" d="M727.219,547.272a2,2,0,0,1,.318.385A1.992,1.992,0,0,0,727.219,547.272Z" transform="translate(-611.926 -483.451)"/><path class="c" d="M726.041,546.305a2.02,2.02,0,0,1,.189.153,1.975,1.975,0,0,0-.189-.153Z" transform="translate(-610.959 -482.657)"/><path class="c" d="M729.227,549.832a1.972,1.972,0,0,0-.1-.188A1.972,1.972,0,0,1,729.227,549.832Z" transform="translate(-613.491 -485.397)"/><path class="c" d="M730.36,552.642q-.016-.1-.042-.2Q730.344,552.543,730.36,552.642Z" transform="translate(-614.468 -487.694)"/><path class="d" d="M737.2,246.22h-11.44a1.987,1.987,0,0,0,.856-1.634v-5.252a1.99,1.99,0,0,0-1.99-1.99H711.462a1.991,1.991,0,0,0,1.385-1.9v-5.252a1.987,1.987,0,0,0-.856-1.634H724.63a1.99,1.99,0,0,0,1.99-1.99v-5.252a1.99,1.99,0,0,0-1.99-1.99H710.561a1.991,1.991,0,0,0,1.385-1.9v-5.252a1.987,1.987,0,0,0-.856-1.634H724.63a1.99,1.99,0,0,0,1.99-1.99V203.3a1.99,1.99,0,0,0-1.99-1.99h-7.088a1.991,1.991,0,0,0,1.385-1.9v-5.252a1.99,1.99,0,0,0-1.99-1.99H697.723a1.99,1.99,0,0,1-3.981,0H674.528a1.989,1.989,0,0,0-1.8,1.152,2,2,0,0,1,.038.388v5.252a1.979,1.979,0,0,1-.186.837,1.986,1.986,0,0,0,.693,1.154H678.2a1.982,1.982,0,0,1,1.261.45h2.151a1.561,1.561,0,1,1-1.423,1.519c0,.007,0,.014,0,.021V208.2a1.986,1.986,0,0,1-.065.5.723.723,0,0,1,.085.11.334.334,0,1,1,.049.094.589.589,0,0,1,.045.2,1.993,1.993,0,0,0,.778,1.091h-1.712c.015-.011.029-.023.044-.035-.159,0-.319-.013-.478-.015a.443.443,0,0,1-.165-.034,1.988,1.988,0,0,1-.571.084l-11.791.356a1.987,1.987,0,0,0-.856,1.634v5.252a1.991,1.991,0,0,0,1.385,1.9l11.262.094a1.991,1.991,0,0,1,.584.087,2.179,2.179,0,0,1,.372.065l.028,0a1.976,1.976,0,0,0-.343-.148h2.771a1.595,1.595,0,1,1-1.416,1.552.426.426,0,0,1-.044.053,2,2,0,0,1,.038.385v5.252c0,.244.036.185.036-.094a1.987,1.987,0,0,0,.856,1.634l7.026.225a1.982,1.982,0,0,1,.705.131h1.691a2,2,0,0,0-.688.841,1.978,1.978,0,0,1,.282,1.018v5.252a1.984,1.984,0,0,1-.167.8,2,2,0,0,0,1.1.874h-1.846a1.979,1.979,0,0,1-1.079.319h-6.97a1.986,1.986,0,0,0-.912,1.671c0-.7-.261,6.211-.261,6.211,0,.621,10.845.9,10.845.9a1.982,1.982,0,0,1,.8.169,1.392,1.392,0,0,1,.344-.03l-.01-.008h1.712a1.518,1.518,0,1,1-.878,1.351c-.01.022-.019.043-.03.063a1.992,1.992,0,0,1,.052.446v5.027a1.99,1.99,0,0,0,1.99,1.99h-3.063a1.98,1.98,0,0,1-.918.225H678.34a1.989,1.989,0,0,0-1.073,1.765V262.7a1.99,1.99,0,0,0,1.99,1.99h19.214a1.99,1.99,0,1,1,3.981,0h19.214a1.99,1.99,0,0,0,1.99-1.99v-5.252a1.99,1.99,0,0,0-1.99-1.99H737.2a1.99,1.99,0,0,0,1.99-1.99V248.21A1.99,1.99,0,0,0,737.2,246.22Zm-47.6-35.675a1.041,1.041,0,1,1-1.712,0Zm-2.241,8.783a1.454,1.454,0,1,1,2.77,0Zm6.981-18.015a1.454,1.454,0,1,1,2.77,0Zm6.114,56.131a1.99,1.99,0,0,0-1.99-1.99h3.981a1.99,1.99,0,0,0-1.99,1.99Zm2.108-11.223a1.041,1.041,0,1,1,1.712,0Zm.856-6.886a1.991,1.991,0,0,0-1.385-1.9h2.771a1.991,1.991,0,0,0-1.386,1.9Zm-.856-11.129a1.041,1.041,0,1,1,1.712,0Zm.856-6.886a1.991,1.991,0,0,0-1.385-1.9h2.771a1.991,1.991,0,0,0-1.386,1.9Zm-.856-11.129a1.041,1.041,0,1,1,1.712,0Zm.856-6.886a1.991,1.991,0,0,0-1.385-1.9h2.771a1.991,1.991,0,0,0-1.386,1.9Zm13.431,43.273a1.041,1.041,0,1,1-1.712,0Zm-2.846,8.877a1.99,1.99,0,1,1,3.981,0Z" transform="translate(-561.346 -192.174)"/><path class="c" d="M747.2,483.79" transform="translate(-628.315 -431.378)"/><path class="c" d="M730.628,554.171a2.021,2.021,0,0,0-.018-.253A2,2,0,0,1,730.628,554.171Z" transform="translate(-614.708 -488.902)"/><path class="c" d="M665.514,332.707c0,.063,0,.125-.01.187C665.51,332.832,665.514,332.77,665.514,332.707Z" transform="translate(-561.303 -307.449)"/><path class="c" d="M536.63,334.358a1.956,1.956,0,0,0,.051.237A1.956,1.956,0,0,1,536.63,334.358Z" transform="translate(-455.591 -308.803)"/><path class="c" d="M412.041,398.436a.449.449,0,0,1-.085-.1.484.484,0,0,1-.057-.166,4.033,4.033,0,0,0,.006.409.3.3,0,1,0,.18.016.819.819,0,0,1-.042-.139C412.042,398.449,412.042,398.443,412.041,398.436Z" transform="translate(-353.276 -361.146)"/><path class="e" d="M223.915,192.174H204.7a1.99,1.99,0,0,0-1.99,1.99,1.99,1.99,0,0,0-1.99-1.99H181.506a1.99,1.99,0,0,0-1.99,1.99v5.252a1.991,1.991,0,0,0,1.385,1.9H166a1.99,1.99,0,0,0-1.99,1.99v5.252a1.987,1.987,0,0,0,.856,1.634H151.33a1.99,1.99,0,0,0-1.99,1.99v5.252a1.99,1.99,0,0,0,1.99,1.99H165.4a1.991,1.991,0,0,0-1.385,1.9v5.252a1.987,1.987,0,0,0,.856,1.634H152.231a1.99,1.99,0,0,0-1.99,1.99v5.252a1.99,1.99,0,0,0,1.99,1.99H165.4a1.991,1.991,0,0,0-1.385,1.9v5.252a1.99,1.99,0,0,0,1.99,1.99h11.44a1.987,1.987,0,0,0-.856,1.634v5.252a1.99,1.99,0,0,0,1.99,1.99H163.04a1.99,1.99,0,0,0-1.99,1.99V262.7a1.99,1.99,0,0,0,1.99,1.99h19.214a1.99,1.99,0,0,0,1.99-1.99,1.99,1.99,0,0,0,1.99,1.99h19.214a1.99,1.99,0,0,0,1.99-1.99v-5.252a1.989,1.989,0,0,0-1.073-1.765h-4.143a1.98,1.98,0,0,1-.918-.225h-3.513a1.99,1.99,0,0,0,1.99-1.99c0,.866.45-5.027.45-5.027a1.99,1.99,0,0,1,1.99-1.99l7.323-.225a2,2,0,0,0,.527-.544,1.977,1.977,0,0,1-.158-.77v-5.252a1.98,1.98,0,0,1,.329-1.1,2,2,0,0,0-.755-.9h-10.42a1.979,1.979,0,0,1-1.079-.319h-2.747a1.991,1.991,0,0,0,1.385-1.9l-.071-5.214c0-.235-.013-.443-.022-.627a1.994,1.994,0,0,0-.763-1.046h1.712c-.013.009-.024.02-.037.029.97-.056,12.055-.706,12.956-1.431a1.562,1.562,0,0,1-.013-.417,2,2,0,0,1-.025-.3v-5.252c0-.065,0-.13.01-.193a1.993,1.993,0,0,0-1.359-1.572h2.422a1.98,1.98,0,0,1,.918-.225h5.494a1.988,1.988,0,0,0,1.073-1.765V212.18a1.987,1.987,0,0,0-.856-1.634l-5.711-.356c-.968,0-1.608-.354-1.1,0h-1.712a1.987,1.987,0,0,0,.855-1.623,2,2,0,0,1-.035-.368v-5.252s0-.008,0-.013a1.993,1.993,0,0,0-1.35-1.527H211.1a1.982,1.982,0,0,1,1.261-.45h12.816a1.984,1.984,0,0,0,.732-1.54v-5.252a1.99,1.99,0,0,0-1.99-1.99ZM173.39,210.545a1.987,1.987,0,0,0-.856,1.634,1.987,1.987,0,0,0-.856-1.634Zm-.856,6.886a1.991,1.991,0,0,0,1.385,1.9h-2.77a1.991,1.991,0,0,0,1.385-1.9Zm1.757,11.129a1.987,1.987,0,0,0-.856,1.634,1.987,1.987,0,0,0-.856-1.634Zm-2.241,8.783a1.991,1.991,0,0,0,1.385-1.9,1.991,1.991,0,0,0,1.385,1.9Zm24.535-26.8a1.987,1.987,0,0,0-.856,1.634,1.987,1.987,0,0,0-.856-1.634Zm-12.341,46.9a1.99,1.99,0,0,0-1.99-1.99h3.981a1.99,1.99,0,0,0-1.99,1.99Zm2.108-11.223a1.987,1.987,0,0,0,.856-1.634,1.987,1.987,0,0,0,.856,1.634Zm.856-6.886a1.991,1.991,0,0,0-1.385-1.9h2.77a1.991,1.991,0,0,0-1.385,1.9Zm-.856-11.129a1.987,1.987,0,0,0,.856-1.634,1.987,1.987,0,0,0,.856,1.634Zm.856-6.886a1.991,1.991,0,0,0-1.385-1.9h2.77a1.991,1.991,0,0,0-1.385,1.9Zm-.856-11.129a1.987,1.987,0,0,0,.856-1.634,1.987,1.987,0,0,0,.856,1.634Zm.856-6.886a1.991,1.991,0,0,0-1.385-1.9h2.77a1.991,1.991,0,0,0-1.385,1.9Zm7.136,16.025a1.991,1.991,0,0,0,1.385-1.9,1.991,1.991,0,0,0,1.385,1.9Zm6.981-18.015a1.991,1.991,0,0,0,1.385-1.9,1.991,1.991,0,0,0,1.385,1.9Z" transform="translate(-137.908 -192.174)"/><path class="c" d="M540.143,295.176l.028-.026Z" transform="translate(-458.473 -276.642)"/><path class="c" d="M539.274,296.027l-.029.032Z" transform="translate(-457.735 -277.362)"/><path class="c" d="M538.478,297.093l.014-.019Z" transform="translate(-457.107 -278.221)"/><path class="c" d="M536.979,335.9a1.954,1.954,0,0,0,.083.228A1.954,1.954,0,0,1,536.979,335.9Z" transform="translate(-455.877 -310.069)"/><path class="c" d="M538.16,338.53a1.977,1.977,0,0,0,.147.2A1.971,1.971,0,0,1,538.16,338.53Z" transform="translate(-456.846 -312.226)"/><path class="c" d="M537.5,337.283a1.982,1.982,0,0,0,.118.222A1.982,1.982,0,0,1,537.5,337.283Z" transform="translate(-456.303 -311.203)"/><path class="c" d="M536.806,300.619c.006-.024.012-.048.019-.072C536.818,300.57,536.812,300.594,536.806,300.619Z" transform="translate(-455.735 -281.068)"/><path class="c" d="M537.18,299.43c.007-.02.014-.04.022-.059C537.194,299.39,537.187,299.41,537.18,299.43Z" transform="translate(-456.042 -280.104)"/><path class="c" d="M536.582,301.889c0-.023.007-.046.011-.069C536.589,301.842,536.585,301.865,536.582,301.889Z" transform="translate(-455.552 -282.113)"/><path class="c" d="M537.79,298.277l0-.007Z" transform="translate(-456.542 -279.201)"/><rect class="f" width="23.195" height="9.233" rx="4.616" transform="translate(65.027 9.233) rotate(180)"/><rect class="f" width="23.195" height="9.233" rx="4.616" transform="translate(134.387 9.233) rotate(180)"/><rect class="f" width="23.195" height="9.233" rx="4.616" transform="translate(165.238 18.241) rotate(180)"/><rect class="f" width="23.195" height="9.233" rx="4.616" transform="translate(127.406 27.248) rotate(180)"/><rect class="f" width="23.195" height="9.233" rx="4.616" transform="translate(165.238 36.481) rotate(180)"/><rect class="f" width="23.195" height="9.233" rx="4.616" transform="translate(165.238 54.497) rotate(180)"/><path class="f" d="M838.91,494.136h-20.3a1.449,1.449,0,0,0-1.39,1.043.922.922,0,0,1-.016.244,1.013,1.013,0,0,1-.041.139c0,.008,0,.015,0,.023v6.335a1.449,1.449,0,0,0,1.449,1.449h20.3a1.449,1.449,0,0,0,1.449-1.449v-6.335A1.449,1.449,0,0,0,838.91,494.136Z" transform="translate(-685.705 -439.865)"/><rect class="f" width="23.195" height="9.233" rx="4.616" transform="translate(139.116 72.512) rotate(180)"/><rect class="f" width="23.195" height="9.233" rx="4.616" transform="translate(72.459 18.241) rotate(180)"/><rect class="f" width="23.195" height="9.233" rx="4.616" transform="translate(58.046 27.248) rotate(180)"/><rect class="f" width="23.195" height="9.233" rx="4.616" transform="translate(49.264 36.481) rotate(180)"/><rect class="f" width="23.195" height="9.233" rx="4.616" transform="translate(58.722 45.489) rotate(180)"/><rect class="f" width="23.195" height="9.233" rx="4.616" transform="translate(49.264 54.497) rotate(180)"/><rect class="g" width="23.195" height="9.233" rx="4.616" transform="translate(38.771 63.514) rotate(180)"/><rect class="h" width="23.195" height="9.233" rx="4.616" transform="translate(174.2 45.479) rotate(180)"/><rect class="h" width="23.195" height="9.233" rx="4.616" transform="translate(173.216 27.28) rotate(180)"/><rect class="h" width="23.195" height="9.233" rx="4.616" transform="translate(184.857 72.368) rotate(180)"/><rect class="g" width="23.195" height="9.233" rx="4.616" transform="translate(23.195 72.532) rotate(180)"/><rect class="g" width="23.195" height="9.233" rx="4.616" transform="translate(26.31 54.333) rotate(180)"/><rect class="g" width="23.195" height="9.233" rx="4.616" transform="translate(26.31 36.461) rotate(180)"/><rect class="c" width="23.195" height="9.233" rx="4.616" transform="translate(27.13 18.262) rotate(180)"/><path class="i" d="M4.616,0H18.578a4.616,4.616,0,0,1,0,9.233H4.616A4.616,4.616,0,0,1,4.616,0Z" transform="translate(27.13 18.262) rotate(180)"/><rect class="g" width="23.195" height="9.233" rx="4.616" transform="translate(41.886 9.244) rotate(180)"/><rect class="f" width="23.195" height="9.233" rx="4.616" transform="translate(62.1 63.504) rotate(180)"/><rect class="f" width="23.195" height="9.233" rx="4.616" transform="translate(46.337 72.512) rotate(180)"/></g><circle class="j" cx="5.198" cy="5.198" r="5.198" transform="translate(140.443 0)"/><path class="k" d="M280.1,147.191h-1.237a.866.866,0,1,0,0-1.731H268.851a.866.866,0,1,0,0,1.731h1.237a.866.866,0,1,0,0,1.731h-1.731a.866.866,0,0,0,0,1.731h10.017a.866.866,0,0,0,0-1.731H280.1a.866.866,0,1,0,0-1.731Z" transform="translate(-234.823 -132.57)"/><path class="k" d="M848.59,93.17h-.941a.659.659,0,0,0,0-1.318h-7.624a.659.659,0,0,0,0,1.318h.941a.659.659,0,0,0,0,1.318h-1.318a.659.659,0,0,0,0,1.318h7.624a.659.659,0,1,0,0-1.318h1.318a.659.659,0,0,0,0-1.318Z" transform="translate(-703.608 -88.597)"/><path class="k" d="M412.1,79.191h-1.236a.866.866,0,0,0,0-1.731H400.851a.866.866,0,1,0,0,1.731h1.237a.866.866,0,0,0,0,1.731h-1.731a.866.866,0,1,0,0,1.731h10.017a.866.866,0,1,0,0-1.731H412.1a.866.866,0,0,0,0-1.731Z" transform="translate(-343.099 -76.791)"/><rect class="j" width="41.699" height="19.339" rx="9.669" transform="translate(67.921 47.582)"/><rect class="f" width="35.051" height="0.363" transform="translate(71.245 63.952)"/><rect class="l" width="35.051" height="13.295" transform="translate(71.245 50.603)"/><circle class="f" cx="4.835" cy="4.835" r="4.835" transform="translate(74.568 52.694)"/><circle class="f" cx="4.835" cy="4.835" r="4.835" transform="translate(93.303 52.694)"/><rect class="j" width="7.252" height="4.231" transform="translate(85.144 66.92)"/><rect class="j" width="30.217" height="24.173" transform="translate(73.662 69.942)"/><rect class="j" width="31.425" height="3.022" transform="translate(73.058 98.95)"/><path class="j" d="M435.067,588.405v13.9h5.439v-18.13h-5.439Z" transform="translate(-356.873 -479.182)"/><path class="j" d="M525.853,584.175V602.3h5.439v-18.13Z" transform="translate(-431.342 -479.182)"/><path class="j" d="M411.311,493.155v5.59a8.175,8.175,0,0,0-4.018,1.937,9.5,9.5,0,0,0-2.392,3.507,17.817,17.817,0,0,0-1.178,5.354,30.608,30.608,0,0,0,.334,7.182h-6.043a41.25,41.25,0,0,1,.158-8.668,23,23,0,0,1,1.94-6.87,13.951,13.951,0,0,1,6.429-6.747A11.874,11.874,0,0,1,411.311,493.155Z" transform="translate(-341.765 -417.774)"/><rect class="l" width="5.439" height="4.23" transform="translate(78.194 104.993)"/><rect class="l" width="5.439" height="5.439" transform="translate(78.194 112.85)"/><rect class="l" width="5.439" height="1.813" transform="translate(78.194 121.31)"/><rect class="l" width="5.439" height="4.23" transform="translate(94.511 104.993)"/><rect class="l" width="5.439" height="5.439" transform="translate(94.511 112.85)"/><rect class="l" width="5.439" height="1.813" transform="translate(94.511 121.31)"/><path class="l" d="M450.915,493.155v5.59a8.176,8.176,0,0,0-4.018,1.937l-.752-6.242A11.874,11.874,0,0,1,450.915,493.155Z" transform="translate(-381.368 -417.774)"/><path class="l" d="M406.312,540.842a17.817,17.817,0,0,0-1.178,5.354l-5.551-1.486a23,23,0,0,1,1.94-6.87Z" transform="translate(-343.176 -454.428)"/><path class="j" d="M686.6,493.155v5.59a8.175,8.175,0,0,1,4.018,1.937,9.5,9.5,0,0,1,2.392,3.507,17.811,17.811,0,0,1,1.178,5.354,30.615,30.615,0,0,1-.334,7.182H699.9a41.254,41.254,0,0,0-.158-8.668,23.005,23.005,0,0,0-1.939-6.87,13.951,13.951,0,0,0-6.429-6.747A11.874,11.874,0,0,0,686.6,493.155Z" transform="translate(-578.611 -417.774)"/><path class="l" d="M686.6,493.155v5.59a8.175,8.175,0,0,1,4.018,1.937l.752-6.242A11.874,11.874,0,0,0,686.6,493.155Z" transform="translate(-578.611 -417.774)"/><path class="l" d="M722.267,540.842a17.817,17.817,0,0,1,1.178,5.354L729,544.71a23,23,0,0,0-1.939-6.87Z" transform="translate(-607.864 -454.428)"/><rect class="f" width="7.252" height="0.501" transform="translate(85.144 66.92)"/><path class="f" d="M664.129,486.856v10.121a2.108,2.108,0,0,1-.562-1.434v-7.253A2.106,2.106,0,0,1,664.129,486.856Z" transform="translate(-559.713 -412.607)"/><path class="f" d="M493.609,484.719v7.576a2.107,2.107,0,0,1-.563,1.282v-10.14A2.107,2.107,0,0,1,493.609,484.719Z" transform="translate(-419.84 -409.802)"/><rect class="f" width="27.194" height="0.358" transform="translate(75.173 94.116)"/><rect class="f" width="13.295" height="0.277" transform="translate(74.568 101.972)"/><rect class="f" width="13.295" height="0.277" transform="translate(89.073 101.972)"/><rect class="j" width="2.081" height="17.897" transform="translate(76.051 29.685)"/><rect class="j" width="2.081" height="17.897" transform="translate(99.914 29.685)"/><circle class="f" cx="2.358" cy="2.358" r="2.358" transform="translate(74.664 27.465)"/><circle class="j" cx="2.358" cy="2.358" r="2.358" transform="translate(74.664 27.327)"/><circle class="f" cx="2.358" cy="2.358" r="2.358" transform="translate(98.665 27.465)"/><circle class="j" cx="2.358" cy="2.358" r="2.358" transform="translate(98.665 27.327)"/></g></svg>