<svg xmlns="http://www.w3.org/2000/svg" width="284.442" height="131.561" viewBox="0 0 284.442 131.561"><defs><style>.a{fill:#3f3d56;}.b{fill:#d0cde1;}.c{fill:#4ba498;}.d{fill:#2f2e41;}.e{fill:#fff;}.f{fill:#f2f2f2;}.g{fill:#e6e6e6;}</style></defs><g transform="translate(0 0)"><path class="a" d="M178.608,584.041l-.383-.143c-.084-.032-8.458-3.24-12.38-10.515s-2-16.034-1.982-16.121l.09-.4.383.143c.084.032,8.458,3.24,12.38,10.515s2,16.034,1.982,16.121Zm-12.135-11c3.316,6.151,9.934,9.3,11.61,10.023.319-1.8,1.318-9.063-2-15.208s-9.933-9.3-11.61-10.023c-.319,1.8-1.318,9.064,2,15.208Z" transform="translate(-153.079 -458.794)"/><path class="b" d="M145.062,596.236c7.049,4.241,9.764,12.665,9.764,12.665s-8.714,1.548-15.764-2.693-9.764-12.665-9.764-12.665S138.013,592,145.062,596.236Z" transform="translate(-129.298 -484.199)"/><path class="a" d="M469.672,233.91H391.063v-1.62H355.418v1.62H276.485a5.317,5.317,0,0,0-5.317,5.317V346.868a5.317,5.317,0,0,0,5.317,5.317H469.672a5.317,5.317,0,0,0,5.318-5.317V239.227a5.317,5.317,0,0,0-5.318-5.317Z" transform="translate(-228.302 -232.29)"/><rect class="c" width="189.564" height="106.934" transform="translate(49.994 11.017)"/><circle class="c" cx="1.944" cy="1.944" r="1.944" transform="translate(142.67 4.212)"/><path class="a" d="M865.382,293.043H856.4v-8.986h8.986Zm-8.6-.391h8.2v-8.2h-8.2Z" transform="translate(-636.706 -268.416)"/><path class="a" d="M461.6,612.543H443.1V611.21a.264.264,0,0,0-.264-.264h-6.343a.264.264,0,0,0-.264.264v1.333h-3.964V611.21a.264.264,0,0,0-.264-.264h-6.343a.264.264,0,0,0-.264.264v1.333h-3.964V611.21a.264.264,0,0,0-.264-.264h-6.343a.264.264,0,0,0-.264.264v1.333h-3.964V611.21a.264.264,0,0,0-.264-.264h-6.343a.264.264,0,0,0-.264.264v1.333h-3.964V611.21a.264.264,0,0,0-.264-.264H393.15a.264.264,0,0,0-.264.264v1.333h-3.964V611.21a.264.264,0,0,0-.264-.264h-6.343a.264.264,0,0,0-.264.264v1.333h-3.964V611.21a.264.264,0,0,0-.264-.264H328.135a.264.264,0,0,0-.264.264v1.333h-3.964V611.21a.264.264,0,0,0-.264-.264H317.3a.264.264,0,0,0-.264.264v1.333h-3.964V611.21a.264.264,0,0,0-.264-.264h-6.343a.264.264,0,0,0-.264.264v1.333h-3.964V611.21a.264.264,0,0,0-.264-.264h-6.343a.264.264,0,0,0-.264.264v1.333H291.4V611.21a.264.264,0,0,0-.264-.264h-6.343a.264.264,0,0,0-.264.264v1.333h-3.964V611.21a.264.264,0,0,0-.264-.264h-6.343a.264.264,0,0,0-.264.264v1.333h-3.965V611.21a.264.264,0,0,0-.264-.264H263.12a.264.264,0,0,0-.264.264v1.333H250.7a6.343,6.343,0,0,0-6.343,6.343v2.868A6.343,6.343,0,0,0,250.7,628.1H461.6a6.343,6.343,0,0,0,6.343-6.343v-2.868a6.343,6.343,0,0,0-6.343-6.343Z" transform="translate(-209.591 -496.536)"/><rect class="a" width="275.767" height="0.842" transform="translate(8.675 125.053)"/><path class="a" d="M742.4,385.708H681.37V350.961H742.4Zm-60.429-.6H741.8V351.565H681.974Z" transform="translate(-514.563 -315.105)"/><path class="a" d="M387.756,410.8H333.37v-33.84h54.386Zm-53.782-.6h53.178V377.565H333.974Z" transform="translate(-271.71 -333.249)"/><path class="b" d="M412.062,416.314l-.052-.676a5.965,5.965,0,0,1,1.611-4.5c1.169-1.377,1.819-2.391,1.819-3.56,0-1.325-.832-2.209-2.469-2.235a4.617,4.617,0,0,0-2.624.806l-.624-1.637a6.812,6.812,0,0,1,3.716-1.04c2.988,0,4.339,1.845,4.339,3.82,0,1.767-.987,3.04-2.235,4.521a5.133,5.133,0,0,0-1.481,3.82l.026.676Zm-.572,3.638a1.536,1.536,0,0,1,1.559-1.637,1.516,1.516,0,0,1,1.533,1.637,1.547,1.547,0,1,1-3.092,0Z" transform="translate(-324.994 -351.754)"/><path class="b" d="M771.062,391.314l-.052-.676a5.965,5.965,0,0,1,1.611-4.5c1.169-1.377,1.819-2.391,1.819-3.56,0-1.325-.832-2.209-2.469-2.234a4.617,4.617,0,0,0-2.624.806l-.624-1.637a6.812,6.812,0,0,1,3.716-1.039c2.988,0,4.339,1.845,4.339,3.82,0,1.767-.987,3.04-2.235,4.521a5.133,5.133,0,0,0-1.481,3.82l.026.676Zm-.572,3.638a1.536,1.536,0,0,1,1.559-1.637,1.516,1.516,0,0,1,1.533,1.637,1.547,1.547,0,1,1-3.092,0Z" transform="translate(-575.523 -334.307)"/><circle class="d" cx="26.073" cy="26.073" r="26.073" transform="translate(119.771 52.742)"/><path class="d" d="M431.362,338.17l-7.794-1.411,2.528-16.275,7.794,1.411Z" transform="translate(-295.588 -223.651)"/><rect class="d" width="7.921" height="14.192" transform="translate(146.098 99.655) rotate(10.261)"/><ellipse class="d" cx="2.475" cy="6.601" rx="2.475" ry="6.601" transform="matrix(0.198, -0.98, 0.98, 0.198, 143.143, 115.605)"/><ellipse class="d" cx="2.475" cy="6.601" rx="2.475" ry="6.601" transform="translate(126.927 116.091) rotate(-82.454)"/><circle class="e" cx="8.911" cy="8.911" r="8.911" transform="translate(138.759 63.526)"/><circle class="a" cx="2.97" cy="2.97" r="2.97" transform="translate(148.362 66.273)"/><path class="e" d="M543.888,357.044c-.392-9.653,7.927-17.828,18.581-18.261s19.609,7.041,20,16.694-7.014,11.846-17.668,12.279S544.28,366.7,543.888,357.044Z" transform="translate(-418.612 -306.594)"/><ellipse class="d" cx="13.036" cy="4.093" rx="13.036" ry="4.093" transform="matrix(0.975, -0.223, 0.223, 0.975, 156.297, 72.988)"/><ellipse class="d" cx="13.036" cy="4.093" rx="13.036" ry="4.093" transform="matrix(0.975, -0.223, 0.223, 0.975, 105.117, 81.499)"/><path class="e" d="M588.069,519.991a5.941,5.941,0,1,0,11.691,2.117c.584-3.229-1.912-4.371-5.14-4.955S588.654,516.763,588.069,519.991Z" transform="translate(-449.386 -430.902)"/><rect class="b" width="42.871" height="40.78" transform="translate(46.692 3.965)"/><rect class="e" width="33.127" height="25.333" transform="translate(51.564 8.836)"/><rect class="f" width="18.019" height="0.948" transform="translate(51.531 37.158)"/><rect class="f" width="18.019" height="0.948" transform="translate(51.531 40.003)"/><circle class="a" cx="3.793" cy="3.793" r="3.793" transform="translate(53.665 17.716)"/><circle class="c" cx="3.793" cy="3.793" r="3.793" transform="translate(64.334 17.716)"/><circle class="g" cx="3.793" cy="3.793" r="3.793" transform="translate(75.003 17.716)"/><circle class="a" cx="1.897" cy="1.897" r="1.897" transform="translate(66.231 4.439)"/><rect class="b" width="42.871" height="40.78" transform="translate(67.083 82.927)"/><rect class="e" width="33.127" height="25.333" transform="translate(71.955 87.798)"/><rect class="c" width="11.614" height="11.614" transform="translate(79.245 91.962)"/><path class="a" d="M406.284,546.262v14.1h14.1v-14.1Zm13.491,13.491H406.9V546.874h12.879Z" transform="translate(-322.593 -451.396)"/><rect class="f" width="18.019" height="0.948" transform="translate(71.922 115.646)"/><circle class="a" cx="1.897" cy="1.897" r="1.897" transform="translate(86.622 83.401)"/><rect class="b" width="42.871" height="40.78" transform="translate(178.701 70.718)"/><rect class="e" width="33.127" height="25.333" transform="translate(183.572 75.59)"/><rect class="a" width="7.127" height="2.112" transform="translate(196.573 95.422)"/><rect class="a" width="24.358" height="0.905" transform="translate(187.957 78.979)"/><rect class="a" width="24.358" height="0.905" transform="translate(187.957 81.845)"/><rect class="a" width="24.358" height="0.905" transform="translate(187.957 84.711)"/><rect class="a" width="24.358" height="0.905" transform="translate(187.957 87.577)"/><rect class="a" width="24.358" height="0.905" transform="translate(187.957 90.444)"/><rect class="f" width="18.019" height="0.948" transform="translate(183.54 103.437)"/><rect class="f" width="25.132" height="0.948" transform="translate(183.54 105.808)"/><circle class="a" cx="1.897" cy="1.897" r="1.897" transform="translate(198.239 71.192)"/></g></svg>