<svg xmlns="http://www.w3.org/2000/svg" width="489.018" height="287" viewBox="0 0 489.018 287">
  <g id="Teal_card" data-name="Teal card" transform="translate(3956 -8953)">
    <rect id="Rectangle_27" data-name="Rectangle 27" width="489" height="287" rx="15" transform="translate(-3956 8953)" fill="#1b7284"/>
    <g id="Group_25" data-name="Group 25" transform="translate(-3956 9085.528)">
      <path id="Path_54" data-name="Path 54" d="M49.507,365.2c0,1.659,2.619,13.285,14.436,13.285H173.731A79.933,79.933,0,0,0,49.507,278.416Z" transform="translate(-49.507 -224.079)" fill="#ee4650"/>
      <rect id="Rectangle_33" data-name="Rectangle 33" width="5.086" height="97.795" transform="translate(32.457)" fill="#97d2ba"/>
      <g id="Group_22" data-name="Group 22" transform="translate(49.404 66.318)">
        <rect id="Rectangle_34" data-name="Rectangle 34" width="5.608" height="55.957" fill="#fff"/>
      </g>
    </g>
    <path id="Path_55" data-name="Path 55" d="M269.982,286.034a24.4,24.4,0,1,1-24.4-24.39A24.4,24.4,0,0,1,269.982,286.034Z" transform="translate(-3755.101 8877.439)" fill="#ee4650"/>
    <path id="Path_58" data-name="Path 58" d="M121.65,294.98l-2.562-2.562,2.562-2.562-3.142-3.142-2.563,2.562-2.563-2.562-3.145,3.142,2.563,2.562-2.559,2.562,3.142,3.147,2.562-2.562,2.563,2.562Z" transform="translate(-3949.243 8921.089)" fill="#97d2ba" opacity="0.5"/>
    <rect id="Rectangle_35" data-name="Rectangle 35" width="60.116" height="60.12" transform="translate(-3651.386 9124.616) rotate(-44.995)" fill="#161f48"/>
    <path id="Path_57" data-name="Path 57" d="M146.524,308.971l.38-.381-16.233-16.23-16.231,16.23.378.381Z" transform="translate(-3941.89 8930.965)" fill="#6e2363"/>
    <path id="Path_56" data-name="Path 56" d="M149.111,310.121l12.6,18.029-12.6,18.024,12.6,18.035-7.343,10.5H159.8l7.344-10.5-12.6-18.035,12.6-18.024-12.6-18.029,12.6-18.019-12.6-18.018,11.707-16.748-3.638-2.548-13.5,19.3,12.6,18.018Z" transform="translate(-3881.232 8865.222)" fill="#161f48" opacity="0.5"/>
    <g id="Group_26" data-name="Group 26" transform="translate(-3588.978 8982.188)">
      <path id="Path_42" data-name="Path 42" d="M326.433,196.863,313.9,205.626l-18.023-12.6-18.025,12.6-18.033-12.6-18.025,12.6-18.042-12.6-19.313,13.487,2.549,3.648,16.764-11.712,18.042,12.6,18.025-12.6,18.033,12.6,18.025-12.6,18.023,12.6,12.535-8.766Z" transform="translate(-204.437 -193.029)" fill="#ee4650"/>
      <path id="Path_43" data-name="Path 43" d="M326.433,207.641,313.9,216.406l-18.023-12.6-18.025,12.6-18.033-12.6-18.025,12.6-18.042-12.6L204.437,217.3l2.549,3.643,16.764-11.707,18.042,12.6,18.025-12.6,18.033,12.6,18.025-12.6,18.023,12.6,12.535-8.761Z" transform="translate(-204.437 -174.173)" fill="#97d2ba"/>
    </g>
    <rect id="Rectangle_36" data-name="Rectangle 36" width="22.956" height="22.958" transform="translate(-3504.916 9069.43) rotate(-45)" fill="#161f48" opacity="0.5"/>
    <path id="Path_59" data-name="Path 59" d="M197.985,192.4h-3.624v-3.625h-4.444V192.4H186.29v4.444h3.627v3.625h4.444v-3.625h3.624Z" transform="translate(-3825.168 8781.718)" fill="#f69868"/>
  </g>
</svg>
